<svg width="16" height="16" viewBox="0 0 16 16" fill="none" xmlns="http://www.w3.org/2000/svg">
<g id="icon-send">
<path id="Vector" d="M12.0467 5.67355L6.34005 2.82021C2.50672 0.900212 0.933387 2.47355 2.85339 6.30688L3.43339 7.46688C3.60005 7.80688 3.60005 8.20021 3.43339 8.54021L2.85339 9.69355C0.933387 13.5269 2.50005 15.1002 6.34005 13.1802L12.0467 10.3269C14.6067 9.04688 14.6067 6.95355 12.0467 5.67355ZM9.89339 8.50021H6.29339C6.02005 8.50021 5.79339 8.27355 5.79339 8.00021C5.79339 7.72688 6.02005 7.50021 6.29339 7.50021H9.89339C10.1667 7.50021 10.3934 7.72688 10.3934 8.00021C10.3934 8.27355 10.1667 8.50021 9.89339 8.50021Z" fill="white"/>
</g>
</svg>
