<svg width="16" height="16" viewBox="0 0 16 16" fill="none" xmlns="http://www.w3.org/2000/svg">
<path d="M2 2L14 14" stroke="#87888B" stroke-linecap="round" stroke-linejoin="round"/>
<path d="M6 3.33337C6 2.80294 6.21071 2.29423 6.58579 1.91916C6.96086 1.54409 7.46957 1.33337 8 1.33337C8.53043 1.33337 9.03914 1.54409 9.41421 1.91916C9.78929 2.29423 10 2.80294 10 3.33337V6.66671C10 6.86414 9.97082 7.06049 9.91333 7.24937M8.58 8.58271C8.28112 8.67327 7.96518 8.69259 7.65749 8.63911C7.34979 8.58562 7.05891 8.46082 6.80812 8.27471C6.55733 8.08859 6.35361 7.84633 6.21328 7.56733C6.07295 7.28833 5.9999 6.98034 6 6.66804V6.00137" stroke="#87888B" stroke-linecap="round" stroke-linejoin="round"/>
<path d="M3.33337 6.66663C3.33323 7.50886 3.56102 8.33543 3.99258 9.05868C4.42415 9.78194 5.04341 10.3749 5.78468 10.7747C6.52596 11.1746 7.36163 11.3663 8.20306 11.3297C9.04449 11.293 9.86032 11.0294 10.564 10.5666M11.8987 9.23329C12.4013 8.47174 12.6684 7.57904 12.6667 6.66663" stroke="#87888B" stroke-linecap="round" stroke-linejoin="round"/>
<path d="M5.33337 14H10.6667" stroke="#87888B" stroke-linecap="round" stroke-linejoin="round"/>
<path d="M8 11.3334V14" stroke="#87888B" stroke-linecap="round" stroke-linejoin="round"/>
</svg>
