<svg width="1070" height="600" viewBox="0 0 1070 600" fill="none" xmlns="http://www.w3.org/2000/svg">
<path d="M17.9155 31.7914L17.9188 31.7905C21.2762 30.7943 28.1883 29.6453 38.4941 28.4119C48.7026 27.1902 61.993 25.912 77.9329 24.6075C109.808 21.9988 152.184 19.2923 201.499 16.7224C300.124 11.5828 426.431 6.99322 551.853 4.82348C677.288 2.65353 801.777 2.90505 896.791 7.44003C944.314 9.70825 984.364 13.0438 1013.44 17.6626C1027.99 19.9742 1039.66 22.5872 1048.1 25.4972C1052.32 26.9526 1055.62 28.4447 1058.04 29.9428C1060.49 31.4653 1061.76 32.8267 1062.3 33.8979L1062.31 33.9074L1062.31 33.9169C1062.45 34.1784 1062.72 34.9575 1063.04 36.5305C1063.34 38.0185 1063.63 39.9695 1063.91 42.3833C1064.46 47.2058 1064.93 53.6804 1065.3 61.6058C1066.06 77.4455 1066.45 98.8896 1066.5 124.105C1066.58 174.526 1065.25 239.893 1062.59 305.382C1059.92 370.878 1055.93 436.439 1050.7 487.265C1048.08 512.689 1045.16 534.35 1041.95 550.446C1040.35 558.502 1038.69 565.073 1037 569.991C1035.47 574.412 1034.07 577.029 1032.97 578.305C1020.27 581.634 1007.15 583.221 993.984 583.021L993.867 583.02L993.749 583.026C961.776 584.69 730.279 587.361 506.273 589.85C486.406 590.071 466.598 590.29 446.996 590.507C356.133 591.513 269.678 592.47 202.052 593.296C160.946 593.798 126.792 594.251 102.832 594.638C90.8531 594.831 81.4139 595.008 74.9252 595.165C71.6837 595.244 69.1627 595.319 67.4245 595.388C66.5602 595.423 65.8611 595.458 65.3542 595.494C65.1074 595.511 64.8602 595.532 64.6453 595.558C64.5443 595.57 64.3884 595.591 64.2177 595.627C64.1285 595.646 63.9356 595.695 63.8177 595.731C63.6295 595.796 63.1192 596.036 62.8046 596.24C62.4449 596.5 62.0294 596.603 61.4413 596.371C60.7493 596.098 59.4874 595.201 58.1625 592.665C56.9871 590.346 55.5496 586.168 53.9168 580.131C52.2996 574.15 50.547 566.563 48.6971 557.586C44.9983 539.635 40.9373 516.254 36.8125 489.307C28.5638 435.419 20.0783 367.39 13.7354 300.255C7.39072 233.1 3.19887 166.934 3.51693 116.737C3.67611 91.6144 4.96521 70.6459 7.63187 55.5992C8.96813 48.0593 10.6186 42.198 12.541 38.0955C14.5193 33.8738 16.4453 32.2261 17.9155 31.7914Z" stroke="#0F1017" stroke-width="7"/>
</svg>
